<mxfile host="Electron" modified="2024-06-01T20:36:02.812Z" agent="Mozilla/5.0 (Macintosh; Intel Mac OS X 10_15_7) AppleWebKit/537.36 (KHTML, like Gecko) draw.io/24.4.13 Chrome/124.0.6367.207 Electron/30.0.6 Safari/537.36" etag="lKXavA0KdBqqNMoHfQre" version="24.4.13" type="device">
  <diagram name="Page-1" id="drlovhU6fbLEltSXgcXZ">
    <mxGraphModel dx="419" dy="1418" grid="1" gridSize="10" guides="1" tooltips="1" connect="1" arrows="1" fold="1" page="1" pageScale="1" pageWidth="850" pageHeight="1100" math="0" shadow="0">
      <root>
        <mxCell id="0" />
        <mxCell id="1" parent="0" />
        <mxCell id="rNS4qj6BT3vV4xHp1wg0-19" value="" style="edgeStyle=orthogonalEdgeStyle;rounded=0;orthogonalLoop=1;jettySize=auto;html=1;fillColor=#dae8fc;strokeColor=#6c8ebf;" parent="1" source="rNS4qj6BT3vV4xHp1wg0-2" target="rNS4qj6BT3vV4xHp1wg0-18" edge="1">
          <mxGeometry relative="1" as="geometry" />
        </mxCell>
        <mxCell id="rNS4qj6BT3vV4xHp1wg0-2" value="Start" style="ellipse;whiteSpace=wrap;html=1;aspect=fixed;fillColor=#008a00;strokeColor=#005700;fontColor=#ffffff;" parent="1" vertex="1">
          <mxGeometry x="30" y="40" width="80" height="80" as="geometry" />
        </mxCell>
        <mxCell id="rNS4qj6BT3vV4xHp1wg0-21" value="" style="edgeStyle=orthogonalEdgeStyle;rounded=0;orthogonalLoop=1;jettySize=auto;html=1;fillColor=#dae8fc;strokeColor=#6c8ebf;" parent="1" source="rNS4qj6BT3vV4xHp1wg0-18" target="rNS4qj6BT3vV4xHp1wg0-20" edge="1">
          <mxGeometry relative="1" as="geometry" />
        </mxCell>
        <mxCell id="rNS4qj6BT3vV4xHp1wg0-18" value="1.1" style="whiteSpace=wrap;html=1;fillColor=#dae8fc;strokeColor=#6c8ebf;" parent="1" vertex="1">
          <mxGeometry x="170" y="50" width="120" height="60" as="geometry" />
        </mxCell>
        <mxCell id="rNS4qj6BT3vV4xHp1wg0-23" value="" style="edgeStyle=orthogonalEdgeStyle;rounded=0;orthogonalLoop=1;jettySize=auto;html=1;fillColor=#dae8fc;strokeColor=#6c8ebf;" parent="1" source="rNS4qj6BT3vV4xHp1wg0-20" target="rNS4qj6BT3vV4xHp1wg0-22" edge="1">
          <mxGeometry relative="1" as="geometry" />
        </mxCell>
        <mxCell id="rNS4qj6BT3vV4xHp1wg0-20" value="1.2" style="whiteSpace=wrap;html=1;fillColor=#dae8fc;strokeColor=#6c8ebf;" parent="1" vertex="1">
          <mxGeometry x="370" y="50" width="120" height="60" as="geometry" />
        </mxCell>
        <mxCell id="rNS4qj6BT3vV4xHp1wg0-26" value="" style="edgeStyle=orthogonalEdgeStyle;rounded=0;orthogonalLoop=1;jettySize=auto;html=1;fillColor=#dae8fc;strokeColor=#6c8ebf;" parent="1" source="rNS4qj6BT3vV4xHp1wg0-22" target="rNS4qj6BT3vV4xHp1wg0-25" edge="1">
          <mxGeometry relative="1" as="geometry" />
        </mxCell>
        <mxCell id="rNS4qj6BT3vV4xHp1wg0-22" value="1.3" style="whiteSpace=wrap;html=1;fillColor=#dae8fc;strokeColor=#6c8ebf;" parent="1" vertex="1">
          <mxGeometry x="570" y="50" width="120" height="60" as="geometry" />
        </mxCell>
        <mxCell id="rNS4qj6BT3vV4xHp1wg0-59" value="" style="edgeStyle=orthogonalEdgeStyle;rounded=0;orthogonalLoop=1;jettySize=auto;html=1;fillColor=#dae8fc;strokeColor=#6c8ebf;" parent="1" source="rNS4qj6BT3vV4xHp1wg0-25" target="rNS4qj6BT3vV4xHp1wg0-58" edge="1">
          <mxGeometry relative="1" as="geometry" />
        </mxCell>
        <mxCell id="rNS4qj6BT3vV4xHp1wg0-25" value="2.1" style="whiteSpace=wrap;html=1;fillColor=#dae8fc;strokeColor=#6c8ebf;" parent="1" vertex="1">
          <mxGeometry x="770" y="50" width="120" height="60" as="geometry" />
        </mxCell>
        <mxCell id="rNS4qj6BT3vV4xHp1wg0-27" value="0" style="text;html=1;align=center;verticalAlign=middle;resizable=0;points=[];autosize=1;strokeColor=#82b366;fillColor=#d5e8d4;" parent="1" vertex="1">
          <mxGeometry x="170" y="18" width="30" height="30" as="geometry" />
        </mxCell>
        <mxCell id="rNS4qj6BT3vV4xHp1wg0-28" value="5" style="text;html=1;align=center;verticalAlign=middle;resizable=0;points=[];autosize=1;strokeColor=#82b366;fillColor=#d5e8d4;" parent="1" vertex="1">
          <mxGeometry x="260" y="18" width="30" height="30" as="geometry" />
        </mxCell>
        <mxCell id="rNS4qj6BT3vV4xHp1wg0-29" value="5" style="text;html=1;align=center;verticalAlign=middle;resizable=0;points=[];autosize=1;strokeColor=#82b366;fillColor=#d5e8d4;" parent="1" vertex="1">
          <mxGeometry x="215" y="18" width="30" height="30" as="geometry" />
        </mxCell>
        <mxCell id="rNS4qj6BT3vV4xHp1wg0-30" value="0" style="text;html=1;align=center;verticalAlign=middle;resizable=0;points=[];autosize=1;strokeColor=#82b366;fillColor=#d5e8d4;" parent="1" vertex="1">
          <mxGeometry x="170" y="112" width="30" height="30" as="geometry" />
        </mxCell>
        <mxCell id="rNS4qj6BT3vV4xHp1wg0-31" value="6" style="text;html=1;align=center;verticalAlign=middle;resizable=0;points=[];autosize=1;strokeColor=#82b366;fillColor=#d5e8d4;" parent="1" vertex="1">
          <mxGeometry x="260" y="112" width="30" height="30" as="geometry" />
        </mxCell>
        <mxCell id="rNS4qj6BT3vV4xHp1wg0-32" value="6" style="text;html=1;align=center;verticalAlign=middle;resizable=0;points=[];autosize=1;strokeColor=#82b366;fillColor=#d5e8d4;" parent="1" vertex="1">
          <mxGeometry x="215" y="112" width="30" height="30" as="geometry" />
        </mxCell>
        <mxCell id="rNS4qj6BT3vV4xHp1wg0-33" value="5" style="text;html=1;align=center;verticalAlign=middle;resizable=0;points=[];autosize=1;strokeColor=#82b366;fillColor=#d5e8d4;" parent="1" vertex="1">
          <mxGeometry x="370" y="18" width="30" height="30" as="geometry" />
        </mxCell>
        <mxCell id="rNS4qj6BT3vV4xHp1wg0-34" value="11" style="text;html=1;align=center;verticalAlign=middle;resizable=0;points=[];autosize=1;strokeColor=#82b366;fillColor=#d5e8d4;" parent="1" vertex="1">
          <mxGeometry x="450" y="18" width="40" height="30" as="geometry" />
        </mxCell>
        <mxCell id="rNS4qj6BT3vV4xHp1wg0-35" value="6" style="text;html=1;align=center;verticalAlign=middle;resizable=0;points=[];autosize=1;strokeColor=#82b366;fillColor=#d5e8d4;" parent="1" vertex="1">
          <mxGeometry x="415" y="18" width="30" height="30" as="geometry" />
        </mxCell>
        <mxCell id="rNS4qj6BT3vV4xHp1wg0-36" value="6" style="text;html=1;align=center;verticalAlign=middle;resizable=0;points=[];autosize=1;strokeColor=#82b366;fillColor=#d5e8d4;" parent="1" vertex="1">
          <mxGeometry x="370" y="112" width="30" height="30" as="geometry" />
        </mxCell>
        <mxCell id="rNS4qj6BT3vV4xHp1wg0-37" value="12" style="text;html=1;align=center;verticalAlign=middle;resizable=0;points=[];autosize=1;strokeColor=#82b366;fillColor=#d5e8d4;" parent="1" vertex="1">
          <mxGeometry x="450" y="112" width="40" height="30" as="geometry" />
        </mxCell>
        <mxCell id="rNS4qj6BT3vV4xHp1wg0-38" value="6" style="text;html=1;align=center;verticalAlign=middle;resizable=0;points=[];autosize=1;strokeColor=#82b366;fillColor=#d5e8d4;" parent="1" vertex="1">
          <mxGeometry x="410" y="112" width="30" height="30" as="geometry" />
        </mxCell>
        <mxCell id="rNS4qj6BT3vV4xHp1wg0-39" value="11" style="text;html=1;align=center;verticalAlign=middle;resizable=0;points=[];autosize=1;strokeColor=#82b366;fillColor=#d5e8d4;" parent="1" vertex="1">
          <mxGeometry x="570" y="18" width="40" height="30" as="geometry" />
        </mxCell>
        <mxCell id="rNS4qj6BT3vV4xHp1wg0-40" value="21" style="text;html=1;align=center;verticalAlign=middle;resizable=0;points=[];autosize=1;strokeColor=#82b366;fillColor=#d5e8d4;" parent="1" vertex="1">
          <mxGeometry x="650" y="18" width="40" height="30" as="geometry" />
        </mxCell>
        <mxCell id="rNS4qj6BT3vV4xHp1wg0-41" value="10" style="text;html=1;align=center;verticalAlign=middle;resizable=0;points=[];autosize=1;strokeColor=#82b366;fillColor=#d5e8d4;" parent="1" vertex="1">
          <mxGeometry x="610" y="18" width="40" height="30" as="geometry" />
        </mxCell>
        <mxCell id="rNS4qj6BT3vV4xHp1wg0-42" value="12" style="text;html=1;align=center;verticalAlign=middle;resizable=0;points=[];autosize=1;strokeColor=#82b366;fillColor=#d5e8d4;" parent="1" vertex="1">
          <mxGeometry x="570" y="110" width="40" height="30" as="geometry" />
        </mxCell>
        <mxCell id="rNS4qj6BT3vV4xHp1wg0-43" value="23" style="text;html=1;align=center;verticalAlign=middle;resizable=0;points=[];autosize=1;strokeColor=#82b366;fillColor=#d5e8d4;" parent="1" vertex="1">
          <mxGeometry x="650" y="110" width="40" height="30" as="geometry" />
        </mxCell>
        <mxCell id="rNS4qj6BT3vV4xHp1wg0-44" value="11" style="text;html=1;align=center;verticalAlign=middle;resizable=0;points=[];autosize=1;strokeColor=#82b366;fillColor=#d5e8d4;" parent="1" vertex="1">
          <mxGeometry x="610" y="110" width="40" height="30" as="geometry" />
        </mxCell>
        <mxCell id="rNS4qj6BT3vV4xHp1wg0-45" value="21" style="text;html=1;align=center;verticalAlign=middle;resizable=0;points=[];autosize=1;strokeColor=#82b366;fillColor=#d5e8d4;" parent="1" vertex="1">
          <mxGeometry x="770" y="20" width="40" height="30" as="geometry" />
        </mxCell>
        <mxCell id="rNS4qj6BT3vV4xHp1wg0-46" value="43" style="text;html=1;align=center;verticalAlign=middle;resizable=0;points=[];autosize=1;strokeColor=#82b366;fillColor=#d5e8d4;" parent="1" vertex="1">
          <mxGeometry x="850" y="20" width="40" height="30" as="geometry" />
        </mxCell>
        <mxCell id="rNS4qj6BT3vV4xHp1wg0-47" value="22" style="text;html=1;align=center;verticalAlign=middle;resizable=0;points=[];autosize=1;strokeColor=#82b366;fillColor=#d5e8d4;" parent="1" vertex="1">
          <mxGeometry x="810" y="20" width="40" height="30" as="geometry" />
        </mxCell>
        <mxCell id="rNS4qj6BT3vV4xHp1wg0-48" value="23" style="text;html=1;align=center;verticalAlign=middle;resizable=0;points=[];autosize=1;strokeColor=#82b366;fillColor=#d5e8d4;" parent="1" vertex="1">
          <mxGeometry x="770" y="110" width="40" height="30" as="geometry" />
        </mxCell>
        <mxCell id="rNS4qj6BT3vV4xHp1wg0-49" value="45" style="text;html=1;align=center;verticalAlign=middle;resizable=0;points=[];autosize=1;strokeColor=#82b366;fillColor=#d5e8d4;" parent="1" vertex="1">
          <mxGeometry x="850" y="110" width="40" height="30" as="geometry" />
        </mxCell>
        <mxCell id="rNS4qj6BT3vV4xHp1wg0-50" value="22" style="text;html=1;align=center;verticalAlign=middle;resizable=0;points=[];autosize=1;strokeColor=#82b366;fillColor=#d5e8d4;" parent="1" vertex="1">
          <mxGeometry x="810" y="110" width="40" height="30" as="geometry" />
        </mxCell>
        <mxCell id="rNS4qj6BT3vV4xHp1wg0-76" value="" style="edgeStyle=orthogonalEdgeStyle;rounded=0;orthogonalLoop=1;jettySize=auto;html=1;fillColor=#dae8fc;strokeColor=#6c8ebf;" parent="1" source="rNS4qj6BT3vV4xHp1wg0-58" target="rNS4qj6BT3vV4xHp1wg0-75" edge="1">
          <mxGeometry relative="1" as="geometry">
            <Array as="points">
              <mxPoint x="1150" y="20" />
              <mxPoint x="1150" y="80" />
            </Array>
          </mxGeometry>
        </mxCell>
        <mxCell id="rNS4qj6BT3vV4xHp1wg0-58" value="2.2" style="whiteSpace=wrap;html=1;fillColor=#dae8fc;strokeColor=#6c8ebf;" parent="1" vertex="1">
          <mxGeometry x="970" y="-10" width="120" height="60" as="geometry" />
        </mxCell>
        <mxCell id="rNS4qj6BT3vV4xHp1wg0-60" value="" style="edgeStyle=orthogonalEdgeStyle;rounded=0;orthogonalLoop=1;jettySize=auto;html=1;exitX=1;exitY=0.5;exitDx=0;exitDy=0;fillColor=#dae8fc;strokeColor=#6c8ebf;entryX=0.02;entryY=0.481;entryDx=0;entryDy=0;entryPerimeter=0;" parent="1" source="rNS4qj6BT3vV4xHp1wg0-25" target="rNS4qj6BT3vV4xHp1wg0-62" edge="1">
          <mxGeometry relative="1" as="geometry">
            <mxPoint x="900" y="90" as="sourcePoint" />
            <Array as="points">
              <mxPoint x="930" y="80" />
              <mxPoint x="930" y="162" />
            </Array>
          </mxGeometry>
        </mxCell>
        <mxCell id="rNS4qj6BT3vV4xHp1wg0-77" style="edgeStyle=orthogonalEdgeStyle;rounded=0;orthogonalLoop=1;jettySize=auto;html=1;exitX=1;exitY=0.5;exitDx=0;exitDy=0;entryX=0;entryY=0.5;entryDx=0;entryDy=0;fillColor=#dae8fc;strokeColor=#6c8ebf;" parent="1" source="rNS4qj6BT3vV4xHp1wg0-62" target="rNS4qj6BT3vV4xHp1wg0-75" edge="1">
          <mxGeometry relative="1" as="geometry" />
        </mxCell>
        <mxCell id="rNS4qj6BT3vV4xHp1wg0-62" value="2.3" style="whiteSpace=wrap;html=1;fillColor=#dae8fc;strokeColor=#6c8ebf;" parent="1" vertex="1">
          <mxGeometry x="960" y="133" width="120" height="60" as="geometry" />
        </mxCell>
        <mxCell id="rNS4qj6BT3vV4xHp1wg0-63" value="43" style="text;html=1;align=center;verticalAlign=middle;resizable=0;points=[];autosize=1;strokeColor=#82b366;fillColor=#d5e8d4;" parent="1" vertex="1">
          <mxGeometry x="970" y="-40" width="40" height="30" as="geometry" />
        </mxCell>
        <mxCell id="rNS4qj6BT3vV4xHp1wg0-64" value="65" style="text;html=1;align=center;verticalAlign=middle;resizable=0;points=[];autosize=1;strokeColor=#82b366;fillColor=#d5e8d4;" parent="1" vertex="1">
          <mxGeometry x="1050" y="-40" width="40" height="30" as="geometry" />
        </mxCell>
        <mxCell id="rNS4qj6BT3vV4xHp1wg0-65" value="22" style="text;html=1;align=center;verticalAlign=middle;resizable=0;points=[];autosize=1;strokeColor=#82b366;fillColor=#d5e8d4;" parent="1" vertex="1">
          <mxGeometry x="1010" y="-40" width="40" height="30" as="geometry" />
        </mxCell>
        <mxCell id="rNS4qj6BT3vV4xHp1wg0-66" value="45" style="text;html=1;align=center;verticalAlign=middle;resizable=0;points=[];autosize=1;strokeColor=#82b366;fillColor=#d5e8d4;" parent="1" vertex="1">
          <mxGeometry x="970" y="50" width="40" height="30" as="geometry" />
        </mxCell>
        <mxCell id="rNS4qj6BT3vV4xHp1wg0-67" value="67" style="text;html=1;align=center;verticalAlign=middle;resizable=0;points=[];autosize=1;strokeColor=#82b366;fillColor=#d5e8d4;" parent="1" vertex="1">
          <mxGeometry x="1050" y="50" width="40" height="30" as="geometry" />
        </mxCell>
        <mxCell id="rNS4qj6BT3vV4xHp1wg0-68" value="22" style="text;html=1;align=center;verticalAlign=middle;resizable=0;points=[];autosize=1;strokeColor=#82b366;fillColor=#d5e8d4;" parent="1" vertex="1">
          <mxGeometry x="1010" y="50" width="40" height="30" as="geometry" />
        </mxCell>
        <mxCell id="rNS4qj6BT3vV4xHp1wg0-69" value="43" style="text;html=1;align=center;verticalAlign=middle;resizable=0;points=[];autosize=1;strokeColor=#82b366;fillColor=#d5e8d4;" parent="1" vertex="1">
          <mxGeometry x="960" y="103" width="40" height="30" as="geometry" />
        </mxCell>
        <mxCell id="rNS4qj6BT3vV4xHp1wg0-70" value="65" style="text;html=1;align=center;verticalAlign=middle;resizable=0;points=[];autosize=1;strokeColor=#82b366;fillColor=#d5e8d4;" parent="1" vertex="1">
          <mxGeometry x="1040" y="103" width="40" height="30" as="geometry" />
        </mxCell>
        <mxCell id="rNS4qj6BT3vV4xHp1wg0-71" value="22" style="text;html=1;align=center;verticalAlign=middle;resizable=0;points=[];autosize=1;strokeColor=#82b366;fillColor=#d5e8d4;" parent="1" vertex="1">
          <mxGeometry x="1000" y="103" width="40" height="30" as="geometry" />
        </mxCell>
        <mxCell id="rNS4qj6BT3vV4xHp1wg0-72" value="45" style="text;html=1;align=center;verticalAlign=middle;resizable=0;points=[];autosize=1;strokeColor=#82b366;fillColor=#d5e8d4;" parent="1" vertex="1">
          <mxGeometry x="960" y="193" width="40" height="30" as="geometry" />
        </mxCell>
        <mxCell id="rNS4qj6BT3vV4xHp1wg0-73" value="67" style="text;html=1;align=center;verticalAlign=middle;resizable=0;points=[];autosize=1;strokeColor=#82b366;fillColor=#d5e8d4;" parent="1" vertex="1">
          <mxGeometry x="1040" y="193" width="40" height="30" as="geometry" />
        </mxCell>
        <mxCell id="rNS4qj6BT3vV4xHp1wg0-74" value="22" style="text;html=1;align=center;verticalAlign=middle;resizable=0;points=[];autosize=1;strokeColor=#82b366;fillColor=#d5e8d4;" parent="1" vertex="1">
          <mxGeometry x="1000" y="193" width="40" height="30" as="geometry" />
        </mxCell>
        <mxCell id="rNS4qj6BT3vV4xHp1wg0-90" style="edgeStyle=orthogonalEdgeStyle;rounded=0;orthogonalLoop=1;jettySize=auto;html=1;exitX=1;exitY=0.5;exitDx=0;exitDy=0;entryX=0;entryY=0.5;entryDx=0;entryDy=0;fillColor=#dae8fc;strokeColor=#6c8ebf;" parent="1" source="rNS4qj6BT3vV4xHp1wg0-75" target="rNS4qj6BT3vV4xHp1wg0-89" edge="1">
          <mxGeometry relative="1" as="geometry" />
        </mxCell>
        <mxCell id="rNS4qj6BT3vV4xHp1wg0-91" style="edgeStyle=orthogonalEdgeStyle;rounded=0;orthogonalLoop=1;jettySize=auto;html=1;exitX=1;exitY=0.5;exitDx=0;exitDy=0;entryX=0;entryY=0.5;entryDx=0;entryDy=0;fillColor=#dae8fc;strokeColor=#6c8ebf;" parent="1" source="rNS4qj6BT3vV4xHp1wg0-75" target="rNS4qj6BT3vV4xHp1wg0-92" edge="1">
          <mxGeometry relative="1" as="geometry">
            <mxPoint x="1370" as="targetPoint" />
          </mxGeometry>
        </mxCell>
        <mxCell id="rNS4qj6BT3vV4xHp1wg0-75" value="3.1" style="whiteSpace=wrap;html=1;fillColor=#dae8fc;strokeColor=#6c8ebf;" parent="1" vertex="1">
          <mxGeometry x="1215" y="50" width="120" height="60" as="geometry" />
        </mxCell>
        <mxCell id="rNS4qj6BT3vV4xHp1wg0-78" value="66" style="text;html=1;align=center;verticalAlign=middle;resizable=0;points=[];autosize=1;strokeColor=#82b366;fillColor=#d5e8d4;" parent="1" vertex="1">
          <mxGeometry x="1215" y="20" width="40" height="30" as="geometry" />
        </mxCell>
        <mxCell id="rNS4qj6BT3vV4xHp1wg0-79" value="73" style="text;html=1;align=center;verticalAlign=middle;resizable=0;points=[];autosize=1;strokeColor=#82b366;fillColor=#d5e8d4;" parent="1" vertex="1">
          <mxGeometry x="1295" y="20" width="40" height="30" as="geometry" />
        </mxCell>
        <mxCell id="rNS4qj6BT3vV4xHp1wg0-80" value="8" style="text;html=1;align=center;verticalAlign=middle;resizable=0;points=[];autosize=1;strokeColor=#82b366;fillColor=#d5e8d4;" parent="1" vertex="1">
          <mxGeometry x="1260" y="20" width="30" height="30" as="geometry" />
        </mxCell>
        <mxCell id="rNS4qj6BT3vV4xHp1wg0-118" style="edgeStyle=orthogonalEdgeStyle;rounded=0;orthogonalLoop=1;jettySize=auto;html=1;exitX=1;exitY=0.5;exitDx=0;exitDy=0;entryX=0;entryY=0.5;entryDx=0;entryDy=0;fillColor=#dae8fc;strokeColor=#6c8ebf;" parent="1" source="rNS4qj6BT3vV4xHp1wg0-89" target="rNS4qj6BT3vV4xHp1wg0-114" edge="1">
          <mxGeometry relative="1" as="geometry" />
        </mxCell>
        <mxCell id="rNS4qj6BT3vV4xHp1wg0-89" value="3.3" style="whiteSpace=wrap;html=1;fillColor=#dae8fc;strokeColor=#6c8ebf;" parent="1" vertex="1">
          <mxGeometry x="1410" y="120" width="120" height="60" as="geometry" />
        </mxCell>
        <mxCell id="rNS4qj6BT3vV4xHp1wg0-116" style="edgeStyle=orthogonalEdgeStyle;rounded=0;orthogonalLoop=1;jettySize=auto;html=1;exitX=1;exitY=0.5;exitDx=0;exitDy=0;entryX=0;entryY=0.5;entryDx=0;entryDy=0;fillColor=#dae8fc;strokeColor=#6c8ebf;" parent="1" source="rNS4qj6BT3vV4xHp1wg0-92" target="rNS4qj6BT3vV4xHp1wg0-114" edge="1">
          <mxGeometry relative="1" as="geometry" />
        </mxCell>
        <mxCell id="rNS4qj6BT3vV4xHp1wg0-92" value="3.2" style="whiteSpace=wrap;html=1;fillColor=#dae8fc;strokeColor=#6c8ebf;" parent="1" vertex="1">
          <mxGeometry x="1410" y="-20" width="120" height="60" as="geometry" />
        </mxCell>
        <mxCell id="rNS4qj6BT3vV4xHp1wg0-93" value="67" style="text;html=1;align=center;verticalAlign=middle;resizable=0;points=[];autosize=1;strokeColor=#82b366;fillColor=#d5e8d4;" parent="1" vertex="1">
          <mxGeometry x="1215" y="110" width="40" height="30" as="geometry" />
        </mxCell>
        <mxCell id="rNS4qj6BT3vV4xHp1wg0-94" value="77" style="text;html=1;align=center;verticalAlign=middle;resizable=0;points=[];autosize=1;strokeColor=#82b366;fillColor=#d5e8d4;" parent="1" vertex="1">
          <mxGeometry x="1295" y="110" width="40" height="30" as="geometry" />
        </mxCell>
        <mxCell id="rNS4qj6BT3vV4xHp1wg0-95" value="10" style="text;html=1;align=center;verticalAlign=middle;resizable=0;points=[];autosize=1;strokeColor=#82b366;fillColor=#d5e8d4;" parent="1" vertex="1">
          <mxGeometry x="1255" y="110" width="40" height="30" as="geometry" />
        </mxCell>
        <mxCell id="rNS4qj6BT3vV4xHp1wg0-96" value="73" style="text;html=1;align=center;verticalAlign=middle;resizable=0;points=[];autosize=1;strokeColor=#82b366;fillColor=#d5e8d4;" parent="1" vertex="1">
          <mxGeometry x="1410" y="-50" width="40" height="30" as="geometry" />
        </mxCell>
        <mxCell id="rNS4qj6BT3vV4xHp1wg0-97" value="77" style="text;html=1;align=center;verticalAlign=middle;resizable=0;points=[];autosize=1;strokeColor=#82b366;fillColor=#d5e8d4;" parent="1" vertex="1">
          <mxGeometry x="1490" y="-50" width="40" height="30" as="geometry" />
        </mxCell>
        <mxCell id="rNS4qj6BT3vV4xHp1wg0-98" value="4" style="text;html=1;align=center;verticalAlign=middle;resizable=0;points=[];autosize=1;strokeColor=#82b366;fillColor=#d5e8d4;" parent="1" vertex="1">
          <mxGeometry x="1455" y="-50" width="30" height="30" as="geometry" />
        </mxCell>
        <mxCell id="rNS4qj6BT3vV4xHp1wg0-99" value="77" style="text;html=1;align=center;verticalAlign=middle;resizable=0;points=[];autosize=1;strokeColor=#82b366;fillColor=#d5e8d4;" parent="1" vertex="1">
          <mxGeometry x="1410" y="40" width="40" height="30" as="geometry" />
        </mxCell>
        <mxCell id="rNS4qj6BT3vV4xHp1wg0-100" value="81" style="text;html=1;align=center;verticalAlign=middle;resizable=0;points=[];autosize=1;strokeColor=#82b366;fillColor=#d5e8d4;" parent="1" vertex="1">
          <mxGeometry x="1490" y="40" width="40" height="30" as="geometry" />
        </mxCell>
        <mxCell id="rNS4qj6BT3vV4xHp1wg0-101" value="4" style="text;html=1;align=center;verticalAlign=middle;resizable=0;points=[];autosize=1;strokeColor=#82b366;fillColor=#d5e8d4;" parent="1" vertex="1">
          <mxGeometry x="1455" y="40" width="30" height="30" as="geometry" />
        </mxCell>
        <mxCell id="rNS4qj6BT3vV4xHp1wg0-108" value="73" style="text;html=1;align=center;verticalAlign=middle;resizable=0;points=[];autosize=1;strokeColor=#82b366;fillColor=#d5e8d4;" parent="1" vertex="1">
          <mxGeometry x="1410" y="90" width="40" height="30" as="geometry" />
        </mxCell>
        <mxCell id="rNS4qj6BT3vV4xHp1wg0-109" value="77" style="text;html=1;align=center;verticalAlign=middle;resizable=0;points=[];autosize=1;strokeColor=#82b366;fillColor=#d5e8d4;" parent="1" vertex="1">
          <mxGeometry x="1490" y="90" width="40" height="30" as="geometry" />
        </mxCell>
        <mxCell id="rNS4qj6BT3vV4xHp1wg0-110" value="4" style="text;html=1;align=center;verticalAlign=middle;resizable=0;points=[];autosize=1;strokeColor=#82b366;fillColor=#d5e8d4;" parent="1" vertex="1">
          <mxGeometry x="1455" y="90" width="30" height="30" as="geometry" />
        </mxCell>
        <mxCell id="rNS4qj6BT3vV4xHp1wg0-111" value="77" style="text;html=1;align=center;verticalAlign=middle;resizable=0;points=[];autosize=1;strokeColor=#82b366;fillColor=#d5e8d4;" parent="1" vertex="1">
          <mxGeometry x="1410" y="180" width="40" height="30" as="geometry" />
        </mxCell>
        <mxCell id="rNS4qj6BT3vV4xHp1wg0-112" value="81" style="text;html=1;align=center;verticalAlign=middle;resizable=0;points=[];autosize=1;strokeColor=#82b366;fillColor=#d5e8d4;" parent="1" vertex="1">
          <mxGeometry x="1490" y="180" width="40" height="30" as="geometry" />
        </mxCell>
        <mxCell id="rNS4qj6BT3vV4xHp1wg0-113" value="4" style="text;html=1;align=center;verticalAlign=middle;resizable=0;points=[];autosize=1;strokeColor=#82b366;fillColor=#d5e8d4;" parent="1" vertex="1">
          <mxGeometry x="1455" y="180" width="30" height="30" as="geometry" />
        </mxCell>
        <mxCell id="rNS4qj6BT3vV4xHp1wg0-126" value="" style="edgeStyle=orthogonalEdgeStyle;rounded=0;orthogonalLoop=1;jettySize=auto;html=1;fillColor=#dae8fc;strokeColor=#6c8ebf;" parent="1" source="rNS4qj6BT3vV4xHp1wg0-114" target="rNS4qj6BT3vV4xHp1wg0-125" edge="1">
          <mxGeometry relative="1" as="geometry" />
        </mxCell>
        <mxCell id="rNS4qj6BT3vV4xHp1wg0-114" value="3.4" style="whiteSpace=wrap;html=1;fillColor=#dae8fc;strokeColor=#6c8ebf;" parent="1" vertex="1">
          <mxGeometry x="1650" y="45" width="120" height="60" as="geometry" />
        </mxCell>
        <mxCell id="rNS4qj6BT3vV4xHp1wg0-119" value="77" style="text;html=1;align=center;verticalAlign=middle;resizable=0;points=[];autosize=1;strokeColor=#82b366;fillColor=#d5e8d4;" parent="1" vertex="1">
          <mxGeometry x="1650" y="15" width="40" height="30" as="geometry" />
        </mxCell>
        <mxCell id="rNS4qj6BT3vV4xHp1wg0-120" value="86" style="text;html=1;align=center;verticalAlign=middle;resizable=0;points=[];autosize=1;strokeColor=#82b366;fillColor=#d5e8d4;" parent="1" vertex="1">
          <mxGeometry x="1730" y="15" width="40" height="30" as="geometry" />
        </mxCell>
        <mxCell id="rNS4qj6BT3vV4xHp1wg0-121" value="9" style="text;html=1;align=center;verticalAlign=middle;resizable=0;points=[];autosize=1;strokeColor=#82b366;fillColor=#d5e8d4;" parent="1" vertex="1">
          <mxGeometry x="1695" y="15" width="30" height="30" as="geometry" />
        </mxCell>
        <mxCell id="rNS4qj6BT3vV4xHp1wg0-122" value="81" style="text;html=1;align=center;verticalAlign=middle;resizable=0;points=[];autosize=1;strokeColor=#82b366;fillColor=#d5e8d4;" parent="1" vertex="1">
          <mxGeometry x="1650" y="105" width="40" height="30" as="geometry" />
        </mxCell>
        <mxCell id="rNS4qj6BT3vV4xHp1wg0-123" value="90" style="text;html=1;align=center;verticalAlign=middle;resizable=0;points=[];autosize=1;strokeColor=#82b366;fillColor=#d5e8d4;" parent="1" vertex="1">
          <mxGeometry x="1730" y="105" width="40" height="30" as="geometry" />
        </mxCell>
        <mxCell id="rNS4qj6BT3vV4xHp1wg0-124" value="9" style="text;html=1;align=center;verticalAlign=middle;resizable=0;points=[];autosize=1;strokeColor=#82b366;fillColor=#d5e8d4;" parent="1" vertex="1">
          <mxGeometry x="1695" y="105" width="30" height="30" as="geometry" />
        </mxCell>
        <mxCell id="rNS4qj6BT3vV4xHp1wg0-128" value="" style="edgeStyle=orthogonalEdgeStyle;rounded=0;orthogonalLoop=1;jettySize=auto;html=1;fillColor=#dae8fc;strokeColor=#6c8ebf;" parent="1" source="rNS4qj6BT3vV4xHp1wg0-125" target="rNS4qj6BT3vV4xHp1wg0-127" edge="1">
          <mxGeometry relative="1" as="geometry" />
        </mxCell>
        <mxCell id="rNS4qj6BT3vV4xHp1wg0-125" value="4.1" style="whiteSpace=wrap;html=1;fillColor=#dae8fc;strokeColor=#6c8ebf;" parent="1" vertex="1">
          <mxGeometry x="1850" y="45" width="120" height="60" as="geometry" />
        </mxCell>
        <mxCell id="rNS4qj6BT3vV4xHp1wg0-130" value="" style="edgeStyle=orthogonalEdgeStyle;rounded=0;orthogonalLoop=1;jettySize=auto;html=1;fillColor=#dae8fc;strokeColor=#6c8ebf;" parent="1" source="rNS4qj6BT3vV4xHp1wg0-127" target="rNS4qj6BT3vV4xHp1wg0-129" edge="1">
          <mxGeometry relative="1" as="geometry" />
        </mxCell>
        <mxCell id="rNS4qj6BT3vV4xHp1wg0-127" value="4.2" style="whiteSpace=wrap;html=1;fillColor=#dae8fc;strokeColor=#6c8ebf;" parent="1" vertex="1">
          <mxGeometry x="2050" y="45" width="120" height="60" as="geometry" />
        </mxCell>
        <mxCell id="rNS4qj6BT3vV4xHp1wg0-129" value="Finish" style="ellipse;whiteSpace=wrap;html=1;fillColor=#f8cecc;strokeColor=#b85450;" parent="1" vertex="1">
          <mxGeometry x="2270" y="35" width="80" height="80" as="geometry" />
        </mxCell>
        <mxCell id="rNS4qj6BT3vV4xHp1wg0-131" value="86" style="text;html=1;align=center;verticalAlign=middle;resizable=0;points=[];autosize=1;strokeColor=#82b366;fillColor=#d5e8d4;" parent="1" vertex="1">
          <mxGeometry x="1850" y="15" width="40" height="30" as="geometry" />
        </mxCell>
        <mxCell id="rNS4qj6BT3vV4xHp1wg0-132" value="98" style="text;html=1;align=center;verticalAlign=middle;resizable=0;points=[];autosize=1;strokeColor=#82b366;fillColor=#d5e8d4;" parent="1" vertex="1">
          <mxGeometry x="1930" y="15" width="40" height="30" as="geometry" />
        </mxCell>
        <mxCell id="rNS4qj6BT3vV4xHp1wg0-133" value="22" style="text;html=1;align=center;verticalAlign=middle;resizable=0;points=[];autosize=1;strokeColor=#82b366;fillColor=#d5e8d4;" parent="1" vertex="1">
          <mxGeometry x="1890" y="15" width="40" height="30" as="geometry" />
        </mxCell>
        <mxCell id="rNS4qj6BT3vV4xHp1wg0-134" value="98" style="text;html=1;align=center;verticalAlign=middle;resizable=0;points=[];autosize=1;strokeColor=#82b366;fillColor=#d5e8d4;" parent="1" vertex="1">
          <mxGeometry x="2050" y="15" width="40" height="30" as="geometry" />
        </mxCell>
        <mxCell id="rNS4qj6BT3vV4xHp1wg0-135" value="120" style="text;html=1;align=center;verticalAlign=middle;resizable=0;points=[];autosize=1;strokeColor=#82b366;fillColor=#d5e8d4;" parent="1" vertex="1">
          <mxGeometry x="2130" y="15" width="40" height="30" as="geometry" />
        </mxCell>
        <mxCell id="rNS4qj6BT3vV4xHp1wg0-136" value="22" style="text;html=1;align=center;verticalAlign=middle;resizable=0;points=[];autosize=1;strokeColor=#82b366;fillColor=#d5e8d4;" parent="1" vertex="1">
          <mxGeometry x="2090" y="15" width="40" height="30" as="geometry" />
        </mxCell>
        <mxCell id="rNS4qj6BT3vV4xHp1wg0-137" value="90" style="text;html=1;align=center;verticalAlign=middle;resizable=0;points=[];autosize=1;strokeColor=#82b366;fillColor=#d5e8d4;" parent="1" vertex="1">
          <mxGeometry x="1850" y="105" width="40" height="30" as="geometry" />
        </mxCell>
        <mxCell id="rNS4qj6BT3vV4xHp1wg0-138" value="102" style="text;html=1;align=center;verticalAlign=middle;resizable=0;points=[];autosize=1;strokeColor=#82b366;fillColor=#d5e8d4;" parent="1" vertex="1">
          <mxGeometry x="1930" y="105" width="40" height="30" as="geometry" />
        </mxCell>
        <mxCell id="rNS4qj6BT3vV4xHp1wg0-139" value="22" style="text;html=1;align=center;verticalAlign=middle;resizable=0;points=[];autosize=1;strokeColor=#82b366;fillColor=#d5e8d4;" parent="1" vertex="1">
          <mxGeometry x="1890" y="105" width="40" height="30" as="geometry" />
        </mxCell>
        <mxCell id="rNS4qj6BT3vV4xHp1wg0-140" value="102" style="text;html=1;align=center;verticalAlign=middle;resizable=0;points=[];autosize=1;strokeColor=#82b366;fillColor=#d5e8d4;" parent="1" vertex="1">
          <mxGeometry x="2050" y="106" width="40" height="30" as="geometry" />
        </mxCell>
        <mxCell id="rNS4qj6BT3vV4xHp1wg0-141" value="120" style="text;html=1;align=center;verticalAlign=middle;resizable=0;points=[];autosize=1;strokeColor=#82b366;fillColor=#d5e8d4;" parent="1" vertex="1">
          <mxGeometry x="2130" y="106" width="40" height="30" as="geometry" />
        </mxCell>
        <mxCell id="rNS4qj6BT3vV4xHp1wg0-142" value="22" style="text;html=1;align=center;verticalAlign=middle;resizable=0;points=[];autosize=1;strokeColor=#82b366;fillColor=#d5e8d4;" parent="1" vertex="1">
          <mxGeometry x="2090" y="106" width="40" height="30" as="geometry" />
        </mxCell>
      </root>
    </mxGraphModel>
  </diagram>
</mxfile>
